# xmcd
#
# Track frame offsets: 
#        150
#        19909
#        31780
#        45319
#        61956
#        73990
#        93754
#        107190
#        125707
#        140168
#        153217
#        164629
#        178702
#
# Disc length: 2539 seconds
#
# Revision: 0
# Processed by: cddbd v1.5.2PL0 Copyright (c) Steve Scherf et al.
# Submitted via: ExactAudioCopy v0.99pb3
#
DISCID=b409e90d
DTITLE=Kaseva - Silloin Kun
DYEAR=1974
DGENRE=Folk/Rock
TTITLE0=Me
TTITLE1=Striptease Tanssija
TTITLE2=Karoliina
TTITLE3=Tied‰t Kai
TTITLE4=Julie
TTITLE5=Vanha Mies
TTITLE6=S‰ Huomannut Kai Oot
TTITLE7=Tyhj‰‰
TTITLE8=Pulsa
TTITLE9=Rantauni
TTITLE10=Silloin Kun
TTITLE11=Mari
TTITLE12=Isomahamies
EXTD=
EXTT0=
EXTT1=
EXTT2=
EXTT3=
EXTT4=
EXTT5=
EXTT6=
EXTT7=
EXTT8=
EXTT9=
EXTT10=
EXTT11=
EXTT12=
PLAYORDER=
